<mxfile host="app.diagrams.net" agent="Mozilla/5.0 (Windows NT 10.0; Win64; x64) AppleWebKit/537.36 (KHTML, like Gecko) Chrome/131.0.0.0 Safari/537.36 Edg/131.0.0.0" version="25.0.3">
  <diagram name="Страница — 1" id="L-YXIYXzgaX-KieRVQ9y">
    <mxGraphModel dx="1612" dy="735" grid="1" gridSize="10" guides="1" tooltips="1" connect="1" arrows="1" fold="1" page="1" pageScale="1" pageWidth="1169" pageHeight="827" math="0" shadow="0">
      <root>
        <mxCell id="0" />
        <mxCell id="1" parent="0" />
        <mxCell id="r_L1VLdTx0chJ_KGzGY3-1" value="Сотрудник" style="whiteSpace=wrap;strokeWidth=2;" vertex="1" parent="1">
          <mxGeometry x="20" y="571" width="336" height="99" as="geometry" />
        </mxCell>
        <mxCell id="r_L1VLdTx0chJ_KGzGY3-2" value="Система" style="whiteSpace=wrap;strokeWidth=2;" vertex="1" parent="1">
          <mxGeometry x="24" y="399" width="328" height="99" as="geometry" />
        </mxCell>
        <mxCell id="r_L1VLdTx0chJ_KGzGY3-3" value="Сервер_БД" style="whiteSpace=wrap;strokeWidth=2;" vertex="1" parent="1">
          <mxGeometry x="40" y="210" width="295" height="99" as="geometry" />
        </mxCell>
        <mxCell id="r_L1VLdTx0chJ_KGzGY3-4" value="Веб_ресурс" style="whiteSpace=wrap;strokeWidth=2;" vertex="1" parent="1">
          <mxGeometry x="40" y="20" width="297" height="99" as="geometry" />
        </mxCell>
        <mxCell id="r_L1VLdTx0chJ_KGzGY3-5" value="Веб_ресурс" style="whiteSpace=wrap;strokeWidth=2;" vertex="1" parent="1">
          <mxGeometry x="120" y="45" width="146" height="49" as="geometry" />
        </mxCell>
        <mxCell id="r_L1VLdTx0chJ_KGzGY3-6" value="Сервер_БД" style="whiteSpace=wrap;strokeWidth=2;" vertex="1" parent="1">
          <mxGeometry x="122" y="235" width="143" height="49" as="geometry" />
        </mxCell>
        <mxCell id="r_L1VLdTx0chJ_KGzGY3-7" value="Система" style="whiteSpace=wrap;strokeWidth=2;" vertex="1" parent="1">
          <mxGeometry x="132" y="424" width="122" height="49" as="geometry" />
        </mxCell>
        <mxCell id="r_L1VLdTx0chJ_KGzGY3-8" value="Сотрудник" style="whiteSpace=wrap;strokeWidth=2;" vertex="1" parent="1">
          <mxGeometry x="124" y="596" width="138" height="49" as="geometry" />
        </mxCell>
        <mxCell id="r_L1VLdTx0chJ_KGzGY3-9" value="Зарегистрировать обращение" style="curved=1;startArrow=none;endArrow=block;exitX=0.23;exitY=1;entryX=0.22;entryY=-0.01;rounded=0;" edge="1" parent="1" source="r_L1VLdTx0chJ_KGzGY3-5" target="r_L1VLdTx0chJ_KGzGY3-6">
          <mxGeometry relative="1" as="geometry">
            <Array as="points">
              <mxPoint x="114" y="119" />
              <mxPoint x="114" y="210" />
            </Array>
          </mxGeometry>
        </mxCell>
        <mxCell id="r_L1VLdTx0chJ_KGzGY3-10" value="Передать данные обращения" style="curved=1;startArrow=none;endArrow=block;exitX=0.22;exitY=0.99;entryX=0.18;entryY=0;rounded=0;" edge="1" parent="1" source="r_L1VLdTx0chJ_KGzGY3-6" target="r_L1VLdTx0chJ_KGzGY3-7">
          <mxGeometry relative="1" as="geometry">
            <Array as="points">
              <mxPoint x="114" y="309" />
              <mxPoint x="114" y="399" />
            </Array>
          </mxGeometry>
        </mxCell>
        <mxCell id="r_L1VLdTx0chJ_KGzGY3-11" value="Назначить исполнителя" style="curved=1;startArrow=none;endArrow=block;exitX=0.09;exitY=1;entryX=0.14;entryY=0;rounded=0;" edge="1" parent="1" source="r_L1VLdTx0chJ_KGzGY3-7" target="r_L1VLdTx0chJ_KGzGY3-8">
          <mxGeometry relative="1" as="geometry">
            <Array as="points">
              <mxPoint x="92" y="498" />
              <mxPoint x="92" y="571" />
            </Array>
          </mxGeometry>
        </mxCell>
        <mxCell id="r_L1VLdTx0chJ_KGzGY3-12" value="Рассмотреть обращение" style="curved=1;startArrow=none;endArrow=block;exitX=0.86;exitY=0;entryX=0.91;entryY=1;rounded=0;" edge="1" parent="1" source="r_L1VLdTx0chJ_KGzGY3-8" target="r_L1VLdTx0chJ_KGzGY3-7">
          <mxGeometry relative="1" as="geometry">
            <Array as="points">
              <mxPoint x="294" y="571" />
              <mxPoint x="294" y="498" />
            </Array>
          </mxGeometry>
        </mxCell>
        <mxCell id="r_L1VLdTx0chJ_KGzGY3-13" value="Отправить данные обращения" style="curved=1;startArrow=none;endArrow=block;exitX=0.82;exitY=0;entryX=0.77;entryY=0.99;rounded=0;" edge="1" parent="1" source="r_L1VLdTx0chJ_KGzGY3-7" target="r_L1VLdTx0chJ_KGzGY3-6">
          <mxGeometry relative="1" as="geometry">
            <Array as="points">
              <mxPoint x="272" y="399" />
              <mxPoint x="272" y="309" />
            </Array>
          </mxGeometry>
        </mxCell>
        <mxCell id="r_L1VLdTx0chJ_KGzGY3-14" value="Отправить данные обращения" style="curved=1;startArrow=none;endArrow=block;exitX=0.77;exitY=-0.01;entryX=0.77;entryY=1;rounded=0;" edge="1" parent="1" source="r_L1VLdTx0chJ_KGzGY3-6" target="r_L1VLdTx0chJ_KGzGY3-5">
          <mxGeometry relative="1" as="geometry">
            <Array as="points">
              <mxPoint x="272" y="210" />
              <mxPoint x="272" y="119" />
            </Array>
          </mxGeometry>
        </mxCell>
      </root>
    </mxGraphModel>
  </diagram>
</mxfile>
